<svg width="270" height="40" viewBox="0 0 270 40" fill="none" xmlns="http://www.w3.org/2000/svg">
<path d="M11.8909 1.146C17.4709 1.146 21.7549 2.136 24.7429 4.116C27.7309 6.06 29.2249 9.264 29.2249 13.728C29.2249 18.228 27.7129 21.486 24.6889 23.502C21.6649 25.482 17.3449 26.472 11.7289 26.472H9.08287V39H0.658867V2.118C2.49487 1.758 4.43887 1.506 6.49087 1.362C8.54287 1.218 10.3429 1.146 11.8909 1.146ZM12.4309 8.328C11.8189 8.328 11.2069 8.346 10.5949 8.382C10.0189 8.418 9.51487 8.454 9.08287 8.49V19.29H11.7289C14.6449 19.29 16.8409 18.894 18.3169 18.102C19.7929 17.31 20.5309 15.834 20.5309 13.674C20.5309 12.63 20.3329 11.766 19.9369 11.082C19.5769 10.398 19.0369 9.858 18.3169 9.462C17.6329 9.03 16.7869 8.742 15.7789 8.598C14.7709 8.418 13.6549 8.328 12.4309 8.328ZM56.7754 39C56.3794 37.704 55.9294 36.372 55.4254 35.004C54.9574 33.636 54.4894 32.268 54.0214 30.9H39.4414C38.9734 32.268 38.4874 33.636 37.9834 35.004C37.5154 36.372 37.0834 37.704 36.6874 39H27.9394C29.3434 34.968 30.6754 31.242 31.9354 27.822C33.1954 24.402 34.4194 21.18 35.6074 18.156C36.8314 15.132 38.0194 12.27 39.1714 9.57C40.3594 6.834 41.5834 4.17 42.8434 1.578H50.8894C52.1134 4.17 53.3194 6.834 54.5074 9.57C55.6954 12.27 56.8834 15.132 58.0714 18.156C59.2954 21.18 60.5374 24.402 61.7974 27.822C63.0574 31.242 64.3894 34.968 65.7934 39H56.7754ZM46.6774 10.056C46.4974 10.596 46.2274 11.334 45.8674 12.27C45.5074 13.206 45.0934 14.286 44.6254 15.51C44.1574 16.734 43.6354 18.084 43.0594 19.56C42.5194 21.036 41.9614 22.584 41.3854 24.204H52.0234C51.4474 22.584 50.8894 21.036 50.3494 19.56C49.8094 18.084 49.2874 16.734 48.7834 15.51C48.3154 14.286 47.9014 13.206 47.5414 12.27C47.1814 11.334 46.8934 10.596 46.6774 10.056ZM95.6394 31.764V39H70.6374V1.578H79.0614V31.764H95.6394ZM101.065 39V1.578H126.337V8.652H109.489V15.996H124.447V22.908H109.489V31.926H127.579V39H101.065ZM144.019 32.574C145.207 32.574 146.179 32.484 146.935 32.304C147.727 32.088 148.357 31.818 148.825 31.494C149.293 31.134 149.617 30.72 149.797 30.252C149.977 29.784 150.067 29.262 150.067 28.686C150.067 27.462 149.491 26.454 148.339 25.662C147.187 24.834 145.207 23.952 142.399 23.016C141.175 22.584 139.951 22.098 138.727 21.558C137.503 20.982 136.405 20.28 135.433 19.452C134.461 18.588 133.669 17.562 133.057 16.374C132.445 15.15 132.139 13.674 132.139 11.946C132.139 10.218 132.463 8.67 133.111 7.302C133.759 5.898 134.677 4.71 135.865 3.738C137.053 2.766 138.493 2.028 140.185 1.524C141.877 0.983998 143.785 0.713997 145.909 0.713997C148.429 0.713997 150.607 0.983998 152.443 1.524C154.279 2.064 155.791 2.658 156.979 3.306L154.549 9.948C153.505 9.408 152.335 8.94 151.039 8.544C149.779 8.112 148.249 7.896 146.449 7.896C144.433 7.896 142.975 8.184 142.075 8.76C141.211 9.3 140.779 10.146 140.779 11.298C140.779 11.982 140.941 12.558 141.265 13.026C141.589 13.494 142.039 13.926 142.615 14.322C143.227 14.682 143.911 15.024 144.667 15.348C145.459 15.636 146.323 15.942 147.259 16.266C149.203 16.986 150.895 17.706 152.335 18.426C153.775 19.11 154.963 19.92 155.899 20.856C156.871 21.792 157.591 22.89 158.059 24.15C158.527 25.41 158.761 26.94 158.761 28.74C158.761 32.232 157.537 34.95 155.089 36.894C152.641 38.802 148.951 39.756 144.019 39.756C142.363 39.756 140.869 39.648 139.537 39.432C138.205 39.252 137.017 39.018 135.973 38.73C134.965 38.442 134.083 38.136 133.327 37.812C132.607 37.488 131.995 37.182 131.491 36.894L133.867 30.198C134.983 30.81 136.351 31.368 137.971 31.872C139.627 32.34 141.643 32.574 144.019 32.574ZM191.944 1.578V8.76H180.658V39H172.234V8.76H160.948V1.578H191.944ZM208.32 1.146C213.936 1.146 218.238 2.154 221.226 4.17C224.214 6.15 225.708 9.246 225.708 13.458C225.708 16.086 225.096 18.228 223.872 19.884C222.684 21.504 220.956 22.782 218.688 23.718C219.444 24.654 220.236 25.734 221.064 26.958C221.892 28.146 222.702 29.406 223.494 30.738C224.322 32.034 225.114 33.402 225.87 34.842C226.626 36.246 227.328 37.632 227.976 39H218.526C217.842 37.776 217.14 36.534 216.42 35.274C215.736 34.014 215.016 32.79 214.26 31.602C213.54 30.414 212.82 29.298 212.1 28.254C211.38 27.174 210.66 26.202 209.94 25.338H205.782V39H197.358V2.118C199.194 1.758 201.084 1.506 203.028 1.362C205.008 1.218 206.772 1.146 208.32 1.146ZM208.806 8.328C208.194 8.328 207.636 8.346 207.132 8.382C206.664 8.418 206.214 8.454 205.782 8.49V18.642H208.158C211.326 18.642 213.594 18.246 214.962 17.454C216.33 16.662 217.014 15.312 217.014 13.404C217.014 11.568 216.312 10.272 214.908 9.516C213.54 8.724 211.506 8.328 208.806 8.328ZM260.119 39C259.723 37.704 259.273 36.372 258.769 35.004C258.301 33.636 257.833 32.268 257.365 30.9H242.785C242.317 32.268 241.831 33.636 241.327 35.004C240.859 36.372 240.427 37.704 240.031 39H231.283C232.687 34.968 234.019 31.242 235.279 27.822C236.539 24.402 237.763 21.18 238.951 18.156C240.175 15.132 241.363 12.27 242.515 9.57C243.703 6.834 244.927 4.17 246.187 1.578H254.233C255.457 4.17 256.663 6.834 257.851 9.57C259.039 12.27 260.227 15.132 261.415 18.156C262.639 21.18 263.881 24.402 265.141 27.822C266.401 31.242 267.733 34.968 269.137 39H260.119ZM250.021 10.056C249.841 10.596 249.571 11.334 249.211 12.27C248.851 13.206 248.437 14.286 247.969 15.51C247.501 16.734 246.979 18.084 246.403 19.56C245.863 21.036 245.305 22.584 244.729 24.204H255.367C254.791 22.584 254.233 21.036 253.693 19.56C253.153 18.084 252.631 16.734 252.127 15.51C251.659 14.286 251.245 13.206 250.885 12.27C250.525 11.334 250.237 10.596 250.021 10.056Z" fill="white"/>
</svg>
